<svg width="24" height="15" xmlns="http://www.w3.org/2000/svg">

 <g>
  <title>Layer 1</title>
  <path transform="translate(5.96046e-8 0)" id="imagebot_1" fill="#E51937" d="M1.5,1.76471L22.5,1.76471C22.9999,1.76471 24,0.48706 24,0C24,0 23.5943,0.00001 23.0943,0.00001L0.90566,0.00001C0.40574,0.00001 0,0 0,0C0,0.48706 1.00008,1.76471 1.5,1.76471z"/>
  <path id="imagebot_8" fill="#E51937" d="M 1.50000003352757 15.042487671813966 L 22.50000003352757 15.042487671813966 C 22.99990003352757 15.042487671813966 24.00000003352757 13.764837671813964 24.00000003352757 13.277777671813965 C 24.00000003352757 13.277777671813965 23.59430003352757 13.277787671813964 23.09430003352757 13.277787671813964 L 0.9056600335275702 13.277787671813964 C 0.4057400335275698 13.277787671813964 3.352757005359308e-8 13.277777671813965 3.352757005359308e-8 13.277777671813965 C 3.352757005359308e-8 13.764837671813964 1.0000800335275701 15.042487671813966 1.50000003352757 15.042487671813966 z"/>
  <path id="imagebot_9" fill="#E51937" d="M 1.5000044179534913 8.542490212341548 L 22.50000441795349 8.542490212341548 C 22.99990441795349 8.542490212341548 24.00000441795349 7.2648402123415465 24.00000441795349 6.777780212341547 C 24.00000441795349 6.777780212341547 23.59430441795349 6.7777902123415465 23.09430441795349 6.7777902123415465 L 0.9056644179534912 6.7777902123415465 C 0.40574441795349125 6.7777902123415465 0.000004417953491042681 6.777780212341547 0.000004417953491042681 6.777780212341547 C 0.000004417953491042681 7.2648402123415465 1.0000844179534911 8.542490212341548 1.5000044179534913 8.542490212341548 z"/>
 </g>
</svg>